<svg width="60" height="60" viewBox="0 0 60 60" fill="none" xmlns="http://www.w3.org/2000/svg">
<path d="M28.8439 2.36865L37.9925 9.12626V9.12626C37.3388 14.0236 34.3035 18.2799 29.8862 20.4934L22.367 24.2612L20.9961 32.4324L11.8004 25.6399V25.6399C12.4784 20.4173 15.7665 15.8981 20.5271 13.646L20.7098 13.5596C25.0008 11.5296 28.0159 7.51546 28.7699 2.82879L28.8439 2.36865Z" fill="#007BED"/>
<path d="M29.4933 20.6328L38.6419 27.3904V27.3904C37.9882 32.2878 34.9529 36.5441 30.5356 38.7575L23.0164 42.5253L21.5614 50.4157L12.4498 43.9041V43.9041C13.1278 38.6814 16.4159 34.1623 21.1766 31.9101L21.3592 31.8237C25.6502 29.7937 28.6653 25.7796 29.4193 21.0929L29.4933 20.6328Z" fill="#007BED"/>
<path d="M39.1273 45.6792L29.9787 38.9216C29.1784 43.8963 25.9163 48.1863 21.3616 50.341L30.7921 57.1611L31.021 57.0463C35.4383 54.8329 38.4736 50.5766 39.1273 45.6792Z" fill="#007BED"/>
</svg>
