<?xml version="1.0" standalone="no"?>
<!DOCTYPE svg PUBLIC "-//W3C//DTD SVG 20010904//EN"
 "http://www.w3.org/TR/2001/REC-SVG-20010904/DTD/svg10.dtd">
<svg version="1.0" xmlns="http://www.w3.org/2000/svg"
 width="700.000000pt" height="700.000000pt" viewBox="0 0 700.000000 700.000000"
 preserveAspectRatio="xMidYMid meet">
<metadata>
Created by potrace 1.14, written by Peter Selinger 2001-2017
</metadata>
<g transform="translate(0.000000,700.000000) scale(0.100000,-0.100000)"
fill="#000000" stroke="none">
<path d="M3366 6711 c-3 -5 -8 -26 -12 -46 -6 -39 -10 -60 -20 -110 -3 -16
-24 -84 -45 -150 -106 -318 -304 -596 -569 -799 -113 -86 -175 -124 -335 -204
-271 -136 -495 -318 -656 -536 -33 -45 -63 -85 -67 -91 -4 -5 -31 -50 -60
-100 -70 -123 -127 -258 -167 -395 -33 -114 -63 -266 -54 -273 2 -3 78 -59
169 -126 91 -67 176 -131 190 -141 37 -27 259 -191 472 -348 103 -75 188 -140
188 -143 0 -3 -37 -28 -83 -55 -430 -253 -744 -697 -842 -1188 -13 -66 -22
-123 -20 -127 4 -6 671 -485 702 -504 9 -5 24 -15 32 -22 24 -18 280 -205 563
-412 139 -101 291 -212 338 -246 47 -34 179 -130 294 -213 l210 -152 75 42
c191 104 378 257 500 408 20 25 42 51 49 59 27 28 111 159 155 241 82 152 140
316 177 498 19 94 21 89 -60 148 -53 39 -92 68 -460 340 -231 171 -469 346
-498 366 -27 18 -29 16 65 65 315 165 581 437 741 759 42 84 106 243 117 294
2 8 11 47 20 85 10 39 19 79 20 90 2 11 6 35 9 53 4 17 3 32 -2 32 -5 0 -17 8
-28 18 -10 9 -86 66 -167 126 -146 106 -426 313 -459 338 -9 7 -100 74 -202
148 -101 74 -185 140 -185 145 0 6 41 33 91 60 373 204 668 560 807 974 28 85
71 267 71 304 0 8 -19 29 -42 46 -24 17 -52 37 -63 45 -11 8 -76 57 -145 108
-69 51 -135 100 -147 108 -12 8 -113 83 -225 166 -399 296 -437 324 -442 315z
m49 -2256 c-111 -509 -433 -921 -906 -1161 l-52 -26 6 34 c4 18 9 47 11 63 18
105 78 464 82 485 2 14 7 41 10 60 2 19 9 58 14 85 5 28 12 68 15 89 12 85 11
84 126 142 60 30 111 55 113 56 3 0 136 67 298 149 161 81 296 144 300 141 4
-4 -4 -57 -17 -117z m70 -2057 c-11 -72 -54 -218 -91 -309 -70 -178 -172 -346
-300 -499 -67 -80 -216 -224 -252 -244 -10 -5 -23 -16 -31 -23 -7 -8 -46 -35
-85 -61 -99 -65 -105 -68 -160 -98 l-49 -26 7 28 c4 16 9 42 11 59 3 16 14 77
25 135 11 58 23 121 26 140 6 35 68 369 79 425 4 17 9 48 12 70 3 22 8 41 12
43 3 2 182 92 396 201 215 109 394 199 398 200 5 0 6 -18 2 -41z"/>
</g>
</svg>
