<svg width="27" height="30" viewBox="0 0 27 30" fill="none" xmlns="http://www.w3.org/2000/svg">
<path d="M17.2508 13.2581L17.2237 13.2849L17.2227 13.2858L16.0993 14.3933C15.8865 14.3125 15.6865 14.1884 15.5127 14.0214L16.7147 12.7704L16.7152 12.7699L16.7416 12.7424L17.2508 13.2581ZM17.2508 13.2581C17.5438 12.9688 17.5408 12.504 17.2448 12.2187C16.9573 11.9424 16.5001 11.9354 16.2054 12.1976L16.7411 12.7411L17.2447 12.2187L16.742 12.742L17.2508 13.2581ZM21.8131 22.808L21.8114 22.8099C20.9557 23.7819 19.9074 24.5589 18.6894 25.2083C18.6892 25.2084 18.689 25.2085 18.6888 25.2086L15.1235 27.1145L15.1166 27.1182L15.1096 27.1219C14.6426 27.3678 14.127 27.4957 13.6068 27.4999L13.6058 27.4999C13.079 27.504 12.5526 27.3801 12.0763 27.1325C12.0744 27.1315 12.0724 27.1305 12.0705 27.1295L8.47821 25.2709L8.47598 25.2698C7.24699 24.6323 6.18975 23.8677 5.32454 22.9082L21.8131 22.808ZM21.8131 22.808C23.5562 20.824 24.5168 18.2808 24.4998 15.6467C24.4998 15.6466 24.4998 15.6465 24.4998 15.6464L24.4575 9.00882L21.9575 9.02198L24.4575 9.00606L24.4575 9.00845C24.4475 7.14121 23.2283 5.53344 21.5024 4.95603C21.5016 4.95576 21.5008 4.95549 21.5 4.95523L14.8725 2.73161C14.8712 2.73116 14.8698 2.73071 14.8685 2.73025C13.9451 2.4186 12.9349 2.42229 12.0124 2.74758L5.40491 5.05229L5.40448 5.05244C3.68693 5.65188 2.49031 7.27208 2.50006 9.13703L2.50008 9.1399L2.54238 15.7757L2.54238 15.7759M21.8131 22.808L2.54238 15.7759M2.54238 15.7759C2.5595 18.4123 3.55248 20.9439 5.32388 22.9075L2.54238 15.7759ZM16.2045 12.1984L16.7407 12.7415L16.7142 12.769L16.7138 12.7695L15.5096 14.0184C15.3012 13.8175 15.1529 13.5772 15.0649 13.3204L16.1767 12.2245C16.1858 12.2156 16.195 12.2068 16.2045 12.1984Z" fill="black" stroke="#CBE9FF" stroke-width="5"/>
</svg>
